<?xml version="1.0" encoding="UTF-8" standalone="no"?>
<svg
  xmlns:dc="http://purl.org/dc/elements/1.1/"
  xmlns:cc="http://creativecommons.org/ns#"
  xmlns:rdf="http://www.w3.org/1999/02/22-rdf-syntax-ns#"
  xmlns:svg="http://www.w3.org/2000/svg"
  xmlns="http://www.w3.org/2000/svg"
  xmlns:sodipodi="http://sodipodi.sourceforge.net/DTD/sodipodi-0.dtd"
  xmlns:inkscape="http://www.inkscape.org/namespaces/inkscape"
  version="1.1"
  id="svg2"
  viewBox="0 0 100.00008 72.009671"
  height="72.009674"
  width="100.00008"
  inkscape:version="0.91 r13725"
  sodipodi:docname="landmark.svg">
  <sodipodi:namedview
    pagecolor="#ffffff"
    bordercolor="#666666"
    borderopacity="1"
    objecttolerance="10"
    gridtolerance="10"
    guidetolerance="10"
    inkscape:pageopacity="0"
    inkscape:pageshadow="2"
    inkscape:window-width="1920"
    inkscape:window-height="1030"
    id="namedview4165"
    showgrid="false"
    fit-margin-top="0"
    fit-margin-left="0"
    fit-margin-right="0"
    fit-margin-bottom="0"
    showborder="false"
    inkscape:zoom="1"
    inkscape:cx="128"
    inkscape:cy="103.37699"
    inkscape:window-x="0"
    inkscape:window-y="25"
    inkscape:window-maximized="1"
    inkscape:current-layer="g4173"/>
  <defs id="defs4"/>
  <metadata id="metadata7">
    <rdf:RDF>
      <cc:Work rdf:about="">
        <dc:format>image/svg+xml</dc:format>
        <dc:type rdf:resource="http://purl.org/dc/dcmitype/StillImage"/>
        <dc:title></dc:title>
      </cc:Work>
    </rdf:RDF>
  </metadata>
  <g id="FieldInfo" transform="matrix(0.50914614,0,0,0.51720107,-16.997329,540.44917)">
    <path
      style="opacity:1;fill:#1b1b1c;fill-opacity:1;stroke:none;stroke-width:1;stroke-linecap:round;stroke-linejoin:miter;stroke-miterlimit:1;stroke-dasharray:none;stroke-dashoffset:13.93629932;stroke-opacity:1"
      d="m 30.385115,906.58464 17.84903,0 -17.84903,59.37193 z"
      id="rect4146"
      inkscape:connector-curvature="0"/>
    <path
      style="opacity:1;fill:#ffffff;fill-opacity:1;stroke:none;stroke-width:1;stroke-linecap:round;stroke-linejoin:miter;stroke-miterlimit:1;stroke-dasharray:none;stroke-dashoffset:13.93629932;stroke-opacity:1"
      id="path4151"
      d="m 178.97996,862.17047 a 11.899352,11.899352 0 0 1 -11.81955,11.89909 11.899352,11.899352 0 0 1 -11.97808,-11.73949 11.899352,11.899352 0 0 1 11.65889,-12.05654 11.899352,11.899352 0 0 1 12.13446,11.57777"
      inkscape:connector-curvature="0"/>
    <path
      d="m 202.77873,862.17047 a 11.899352,11.899352 0 0 1 -11.81955,11.89909 11.899352,11.899352 0 0 1 -11.97808,-11.73949 11.899352,11.899352 0 0 1 11.65889,-12.05654 11.899352,11.899352 0 0 1 12.13446,11.57777"
      id="path4153"
      style="opacity:1;fill:#ffffff;fill-opacity:1;stroke:none;stroke-width:1;stroke-linecap:round;stroke-linejoin:miter;stroke-miterlimit:1;stroke-dasharray:none;stroke-dashoffset:13.93629932;stroke-opacity:1"
      inkscape:connector-curvature="0"/>
    <path
      style="opacity:1;fill:#ffffff;fill-opacity:1;stroke:none;stroke-width:1;stroke-linecap:round;stroke-linejoin:miter;stroke-miterlimit:1;stroke-dasharray:none;stroke-dashoffset:13.93629932;stroke-opacity:1"
      d="m 157.73116,882.1442 c 19.89243,6.7781 18.48607,6.72321 41.64773,0 9.61974,-2.79228 -11.23257,21.35122 -21.24886,21.24901 -9.81798,-0.0988 -29.69269,-24.41556 -20.39887,-21.24901 z"
      id="rect4157"
      inkscape:connector-curvature="0"/>
    <path
      style="opacity:1;fill:#1b1b1c;fill-opacity:1;stroke:none;stroke-width:1;stroke-linecap:round;stroke-linejoin:miter;stroke-miterlimit:1;stroke-dasharray:none;stroke-dashoffset:13.93629932;stroke-opacity:1"
      d="m 30.738564,906.64386 121.569206,0 9.32207,10.5486 -130.891276,0 z"
      id="rect4160"
      inkscape:connector-curvature="0"/>
    <text
      xml:space="preserve"
      style="font-style:normal;font-variant:normal;font-weight:normal;font-stretch:normal;font-size:44.42783737px;line-height:100%;font-family:sans-serif;-inkscape-font-specification:'sans-serif, Normal';text-align:start;letter-spacing:0px;word-spacing:0px;writing-mode:lr-tb;text-anchor:start;fill:#1b1b1c;fill-opacity:1;stroke:none;stroke-width:1px;stroke-linecap:butt;stroke-linejoin:miter;stroke-opacity:1"
      x="23.19228"
      y="1055.7174"
      id="text4162"
      transform="scale(1.1890222,0.84102721)"
      sodipodi:linespacing="100%">
      <tspan id="tspan4164" x="23.19228" y="1055.7174">000</tspan>
    </text>
    <path
      d="m 224.07123,874.0697 a 45.091217,44.621517 0 0 1 -44.78882,44.62052 45.091217,44.621517 0 0 1 -45.38956,-44.02203 45.091217,44.621517 0 0 1 44.18002,-45.21097 45.091217,44.621517 0 0 1 45.98213,43.41562"
      id="path4166"
      style="opacity:1;fill:none;fill-opacity:1;stroke:#1b1b1c;stroke-width:5.44205427;stroke-linecap:round;stroke-linejoin:miter;stroke-miterlimit:1;stroke-dasharray:none;stroke-dashoffset:13.93629932;stroke-opacity:1"
      inkscape:connector-curvature="0"/>
    <text
      xml:space="preserve"
      style="font-style:normal;font-variant:normal;font-weight:normal;font-stretch:normal;font-size:22.5px;line-height:100%;font-family:sans-serif;-inkscape-font-specification:'sans-serif, Normal';text-align:start;letter-spacing:0px;word-spacing:0px;writing-mode:lr-tb;text-anchor:start;fill:#1b1b1c;fill-opacity:1;stroke:none;stroke-width:1px;stroke-linecap:butt;stroke-linejoin:miter;stroke-opacity:1"
      x="50.172413"
      y="945.18115"
      id="text4169"
      sodipodi:linespacing="100%">
      <tspan id="tspan4171" x="50.172413" y="945.18115">Country</tspan>
    </text>
  </g>
</svg>
