<?xml version="1.0" encoding="UTF-8" standalone="no"?>
<!-- Created with Inkscape (http://www.inkscape.org/) -->

<svg
   xmlns:dc="http://purl.org/dc/elements/1.1/"
   xmlns:cc="http://creativecommons.org/ns#"
   xmlns:rdf="http://www.w3.org/1999/02/22-rdf-syntax-ns#"
   xmlns:svg="http://www.w3.org/2000/svg"
   xmlns="http://www.w3.org/2000/svg"
   xmlns:sodipodi="http://sodipodi.sourceforge.net/DTD/sodipodi-0.dtd"
   xmlns:inkscape="http://www.inkscape.org/namespaces/inkscape"
   width="900"
   height="48"
   viewBox="0 0 900.00001 48.000001"
   id="svg2"
   version="1.1"
   inkscape:version="0.91 r13725"
   sodipodi:docname="menu_bar.svg">
  <defs
     id="defs4" />
  <sodipodi:namedview
     id="base"
     pagecolor="#ffffff"
     bordercolor="#666666"
     borderopacity="1.0"
     inkscape:pageopacity="0.0"
     inkscape:pageshadow="2"
     inkscape:zoom="5.6042323"
     inkscape:cx="84.672586"
     inkscape:cy="-3.8387454"
     inkscape:document-units="px"
     inkscape:current-layer="layer1"
     showgrid="false"
     units="px"
     fit-margin-top="0"
     fit-margin-left="0"
     fit-margin-right="0"
     fit-margin-bottom="0"
     inkscape:showpageshadow="false"
     inkscape:window-width="1920"
     inkscape:window-height="1030"
     inkscape:window-x="0"
     inkscape:window-y="25"
     inkscape:window-maximized="1" />
  <metadata
     id="metadata7">
    <rdf:RDF>
      <cc:Work
         rdf:about="">
        <dc:format>image/svg+xml</dc:format>
        <dc:type
           rdf:resource="http://purl.org/dc/dcmitype/StillImage" />
        <dc:title />
      </cc:Work>
    </rdf:RDF>
  </metadata>
  <g
     inkscape:label="Ebene 1"
     inkscape:groupmode="layer"
     id="layer1"
     transform="translate(0,-1004.3622)">
    <path
       style="opacity:1;fill:none;fill-opacity:1;stroke:#ffffff;stroke-width:1.52380705;stroke-linecap:square;stroke-linejoin:miter;stroke-miterlimit:4;stroke-dasharray:none;stroke-dashoffset:13.93629932;stroke-opacity:1"
       d="m 14.104626,1027.0305 0,-13.9064 30.476193,0 0,13.9064 -15.238096,-6.2873 z m 30.476193,4.4937 0,12.0761 -30.476193,0 0,-12.0761 15.238097,-5.8895 z"
       id="connect"
       inkscape:connector-curvature="0"
       sodipodi:nodetypes="cccccccccccc"
       inkscape:label="" />
    <path
       style="opacity:1;fill:none;fill-opacity:1;stroke:#ff0000;stroke-width:1.4746896;stroke-linecap:square;stroke-linejoin:miter;stroke-miterlimit:4;stroke-dasharray:none;stroke-dashoffset:13.93629932;stroke-opacity:1"
       d="m 73.100022,1043.0612 0,-29.398 29.590328,14.699 z"
       id="start"
       inkscape:connector-curvature="0"
       sodipodi:nodetypes="cccc"
       inkscape:label="#rect4139" />
    <g
       id="g4283"
       style="stroke:#ffffff;stroke-opacity:1">
      <path
         inkscape:connector-curvature="0"
         id="rect4251"
         d="m 136.61034,1011.8519 c -0.37079,-0.01 -0.7508,0.053 -1.11914,0.1972 l -10.13672,3.9571 c -1.47335,0.5752 -2.19632,2.2239 -1.62109,3.6972 l 9.05078,23.1797 c 0.57523,1.4734 2.22391,2.1964 3.69727,1.6211 l 2.41211,-0.9414 -0.21094,-0.053 c -1.35163,-0.3358 -2.22916,-1.5716 -2.16016,-2.9102 3e-5,-6e-4 -3e-5,-0 0,-0 l -1.1875,-24.5625 c -0.0764,-1.5798 1.13307,-2.9139 2.71289,-2.9903 l 0.76367,-0.037 c -0.52409,-0.7053 -1.33555,-1.1331 -2.20117,-1.1562 z"
         style="opacity:1;fill:none;fill-opacity:1;stroke:#ffffff;stroke-width:1.40809333;stroke-linecap:round;stroke-linejoin:round;stroke-miterlimit:4;stroke-dasharray:none;stroke-dashoffset:13.93629932;stroke-opacity:1" />
      <path
         inkscape:connector-curvature="0"
         id="rect4253"
         d="m 148.91698,1012.5198 -10.86914,0.5254 c -1.57982,0.076 -2.78926,1.4105 -2.71289,2.9903 l 1.1875,24.5644 c 0.009,-0.1816 0.0326,-0.3654 0.0781,-0.5488 l 6,-24.1484 c 0.38133,-1.535 1.92398,-2.4634 3.45898,-2.0821 l 5.84961,1.4532 -0.002,-0.041 c -0.0764,-1.5798 -1.41042,-2.7892 -2.99024,-2.7129 z m -12.10742,29.4551 c 0.004,0.01 0.008,0.017 0.0117,0.025 -0.004,-0.01 -0.008,-0.017 -0.0117,-0.025 z m 0.25195,0.4258 c 0.0268,0.038 0.0535,0.075 0.082,0.1113 -0.0288,-0.036 -0.0551,-0.074 -0.082,-0.1113 z m 0.32618,0.3789 c 0.0538,0.053 0.10823,0.1038 0.16601,0.1524 -0.058,-0.048 -0.11233,-0.1002 -0.16601,-0.1524 z m 0.38867,0.3184 c 0.0901,0.062 0.18412,0.1166 0.28125,0.1679 -0.0981,-0.051 -0.191,-0.107 -0.28125,-0.1679 z m 0.44336,0.2461 c 0.12795,0.057 0.25953,0.1041 0.39648,0.1425 -0.13797,-0.038 -0.26926,-0.087 -0.39648,-0.1425 z"
         style="opacity:1;fill:none;fill-opacity:1;stroke:#ffffff;stroke-width:1.40809333;stroke-linecap:round;stroke-linejoin:round;stroke-miterlimit:4;stroke-dasharray:none;stroke-dashoffset:13.93629932;stroke-opacity:1" />
      <rect
         ry="2.8549852"
         y="948.69922"
         x="383.32687"
         height="30.591906"
         width="16.591908"
         id="rect4255"
         style="opacity:1;fill:none;fill-opacity:1;stroke:#ffffff;stroke-width:1.40809333;stroke-linecap:round;stroke-linejoin:round;stroke-miterlimit:4;stroke-dasharray:none;stroke-dashoffset:13.93629932;stroke-opacity:1"
         transform="matrix(0.97050044,0.24109933,-0.24109933,0.97050044,0,0)" />
    </g>
  </g>
</svg>
