<?xml version="1.0" encoding="UTF-8" standalone="no"?>
<!-- Created with Inkscape (http://www.inkscape.org/) -->

<svg
   xmlns:dc="http://purl.org/dc/elements/1.1/"
   xmlns:cc="http://creativecommons.org/ns#"
   xmlns:rdf="http://www.w3.org/1999/02/22-rdf-syntax-ns#"
   xmlns:svg="http://www.w3.org/2000/svg"
   xmlns="http://www.w3.org/2000/svg"
   xmlns:sodipodi="http://sodipodi.sourceforge.net/DTD/sodipodi-0.dtd"
   xmlns:inkscape="http://www.inkscape.org/namespaces/inkscape"
   width="192"
   height="48"
   viewBox="0 0 192 48.000001"
   id="svg2"
   version="1.1"
   inkscape:version="0.91 r13725"
   sodipodi:docname="menu_bar.svg">
  <defs
     id="defs4" />
  <sodipodi:namedview
     id="base"
     pagecolor="#ffffff"
     bordercolor="#666666"
     borderopacity="1.0"
     inkscape:pageopacity="0.0"
     inkscape:pageshadow="2"
     inkscape:zoom="5.71"
     inkscape:cx="96"
     inkscape:cy="11.459387"
     inkscape:document-units="px"
     inkscape:current-layer="layer1"
     showgrid="false"
     units="px"
     fit-margin-top="0"
     fit-margin-left="0"
     fit-margin-right="0"
     fit-margin-bottom="0"
     inkscape:showpageshadow="false"
     inkscape:window-width="1920"
     inkscape:window-height="1030"
     inkscape:window-x="0"
     inkscape:window-y="25"
     inkscape:window-maximized="1" />
  <metadata
     id="metadata7">
    <rdf:RDF>
      <cc:Work
         rdf:about="">
        <dc:format>image/svg+xml</dc:format>
        <dc:type
           rdf:resource="http://purl.org/dc/dcmitype/StillImage" />
        <dc:title />
      </cc:Work>
    </rdf:RDF>
  </metadata>
  <g
     inkscape:label="Ebene 1"
     inkscape:groupmode="layer"
     id="layer1"
     transform="translate(0,-1004.3622)">
    <path
       style="opacity:1;fill:none;fill-opacity:1;stroke:#ff0000;stroke-width:1.39999998;stroke-linecap:square;stroke-linejoin:miter;stroke-miterlimit:4;stroke-dasharray:none;stroke-dashoffset:13.93629932;stroke-opacity:1"
       d="m 156.76834,1043.0612 0,-7.3495 0,-7.3495 0,-7.3495 0,-7.3495 29.59033,14.699 z"
       id="endturn"
       inkscape:connector-curvature="0"
       sodipodi:nodetypes="ccccccc"
       inkscape:label="#rect4139" />
    <g
       id="card"
       inkscape:label="#g4883"
       transform="translate(10.909759,0.71372404)"
       style="stroke-width:1.39999998;stroke-miterlimit:4;stroke-dasharray:none">
      <path
         inkscape:connector-curvature="0"
         id="rect4251"
         d="m 105.20551,1010.4657 c -0.37079,-0.01 -0.7508,0.053 -1.11914,0.1972 l -10.136724,3.9571 c -1.47335,0.5752 -2.19632,2.2239 -1.62109,3.6972 l 9.050784,23.1797 c 0.57523,1.4734 2.22391,2.1964 3.69727,1.6211 l 2.41211,-0.9414 -0.21094,-0.053 c -1.35163,-0.3358 -2.22916,-1.5716 -2.16016,-2.9102 3e-5,-6e-4 -3e-5,0 0,0 l -1.1875,-24.5625 c -0.0764,-1.5798 1.13307,-2.9139 2.71289,-2.9903 l 0.76367,-0.037 c -0.52409,-0.7053 -1.33555,-1.1331 -2.20117,-1.1562 z"
         style="opacity:1;fill:none;fill-opacity:1;stroke:#ffffff;stroke-width:1.39999998;stroke-linecap:round;stroke-linejoin:round;stroke-miterlimit:4;stroke-dasharray:none;stroke-dashoffset:13.93629932;stroke-opacity:1" />
      <path
         inkscape:connector-curvature="0"
         id="rect4253"
         d="m 117.51215,1011.1336 -10.86914,0.5254 c -1.57982,0.076 -2.78926,1.4105 -2.71289,2.9903 l 1.1875,24.5644 c 0.009,-0.1816 0.0326,-0.3654 0.0781,-0.5488 l 6,-24.1484 c 0.38133,-1.535 1.92398,-2.4634 3.45898,-2.0821 l 5.84961,1.4532 -0.002,-0.041 c -0.0764,-1.5798 -1.41042,-2.7892 -2.99024,-2.7129 z m -12.10742,29.4551 c 0.004,0.01 0.008,0.017 0.0117,0.025 -0.004,-0.01 -0.008,-0.017 -0.0117,-0.025 z m 0.25195,0.4258 c 0.0268,0.038 0.0535,0.075 0.082,0.1113 -0.0288,-0.036 -0.0551,-0.074 -0.082,-0.1113 z m 0.32618,0.3789 c 0.0538,0.053 0.10823,0.1038 0.16601,0.1524 -0.058,-0.048 -0.11233,-0.1002 -0.16601,-0.1524 z m 0.38867,0.3184 c 0.0901,0.062 0.18412,0.1166 0.28125,0.1679 -0.0981,-0.051 -0.191,-0.107 -0.28125,-0.1679 z m 0.44336,0.2461 c 0.12795,0.057 0.25953,0.1041 0.39648,0.1425 -0.13797,-0.038 -0.26926,-0.087 -0.39648,-0.1425 z"
         style="opacity:1;fill:none;fill-opacity:1;stroke:#ffffff;stroke-width:1.39999998;stroke-linecap:round;stroke-linejoin:round;stroke-miterlimit:4;stroke-dasharray:none;stroke-dashoffset:13.93629932;stroke-opacity:1" />
      <rect
         ry="2.8549852"
         y="954.92554"
         x="352.51425"
         height="30.591906"
         width="16.591908"
         id="rect4255"
         style="opacity:1;fill:none;fill-opacity:1;stroke:#ffffff;stroke-width:1.39999998;stroke-linecap:round;stroke-linejoin:round;stroke-miterlimit:4;stroke-dasharray:none;stroke-dashoffset:13.93629932;stroke-opacity:1"
         transform="matrix(0.97050044,0.24109933,-0.24109933,0.97050044,0,0)" />
    </g>
    <g
       id="emotion"
       inkscape:label="#g4163"
       transform="translate(-1.4140182,4.086521e-5)"
       style="stroke-width:1.39999998;stroke-miterlimit:4;stroke-dasharray:none">
      <g
         transform="matrix(0.61042685,0,0,0.61042685,31.817549,435.78533)"
         id="g6809"
         style="stroke-width:2.29347706;stroke-miterlimit:4;stroke-dasharray:none">
        <path
           style="fill:#ffffff;fill-opacity:1;stroke:none;stroke-width:2.29347706;stroke-miterlimit:4;stroke-dasharray:none"
           d="m 57.5056,959.71801 c 0,2.7058 -2.149032,4.8994 -4.8,4.8994 -2.650968,0 -4.8,-2.1936 -4.8,-4.8994 0,-2.7058 2.149032,-4.8993 4.8,-4.8993 2.62108,0 4.757536,2.1461 4.799392,4.8211"
           id="path4631"
           inkscape:connector-curvature="0" />
        <path
           style="fill:#ffffff;fill-opacity:1;stroke:none;stroke-width:2.29347706;stroke-miterlimit:4;stroke-dasharray:none"
           d="m 79.9056,959.71801 c 0,2.7058 -2.149032,4.8994 -4.8,4.8994 -2.650968,0 -4.8,-2.1936 -4.8,-4.8994 0,-2.7058 2.149032,-4.8993 4.8,-4.8993 2.62108,0 4.757536,2.1461 4.799392,4.8211"
           id="path4633"
           inkscape:connector-curvature="0" />
        <path
           style="fill:none;fill-opacity:1;stroke:#ffffff;stroke-width:2.29347706;stroke-linecap:round;stroke-linejoin:miter;stroke-miterlimit:4;stroke-dasharray:none;stroke-opacity:1"
           d="m 51.1056,979.31541 c 12.8,13.0649 25.6,0 25.6,0"
           id="path4641"
           inkscape:connector-curvature="0"
           sodipodi:nodetypes="cc" />
      </g>
      <path
         d="m 85.980514,1028.3622 a 15.153304,15.153337 0 0 1 -15.051681,15.153 15.153304,15.153337 0 0 1 -15.253565,-14.9498 15.153304,15.153337 0 0 1 14.847088,-15.3535 15.153304,15.153337 0 0 1 15.452706,14.7438"
         sodipodi:open="true"
         sodipodi:end="6.2563596"
         sodipodi:start="0"
         sodipodi:ry="15.153337"
         sodipodi:rx="15.153304"
         sodipodi:cy="1028.3622"
         sodipodi:cx="70.827209"
         sodipodi:type="arc"
         id="path4161"
         style="opacity:1;fill:none;fill-opacity:1;stroke:#ffffff;stroke-width:1.39999998;stroke-linecap:round;stroke-linejoin:round;stroke-miterlimit:4;stroke-dasharray:none;stroke-dashoffset:13.93629932;stroke-opacity:1" />
    </g>
    <g
       id="g4161"
       transform="matrix(0.99004877,0,0,0.90260979,3.1849086e-4,101.6925)">
      <rect
         ry="0"
         y="1010.1194"
         x="5.2915254"
         height="6.191402"
         width="30.287144"
         id="rect4155"
         style="opacity:1;fill:none;fill-opacity:1;stroke:#ffffff;stroke-width:1.8085978;stroke-linecap:round;stroke-linejoin:round;stroke-miterlimit:4;stroke-dasharray:none;stroke-dashoffset:13.93629932;stroke-opacity:1" />
      <rect
         style="opacity:1;fill:none;fill-opacity:1;stroke:#ffffff;stroke-width:1.8085978;stroke-linecap:round;stroke-linejoin:round;stroke-miterlimit:4;stroke-dasharray:none;stroke-dashoffset:13.93629932;stroke-opacity:1"
         id="rect4157"
         width="30.287144"
         height="6.191402"
         x="5.2915254"
         y="1037.474"
         ry="0" />
      <rect
         ry="0"
         y="1023.7968"
         x="4.9721808"
         height="6.191402"
         width="30.287144"
         id="rect4159"
         style="opacity:1;fill:none;fill-opacity:1;stroke:#ffffff;stroke-width:1.8085978;stroke-linecap:round;stroke-linejoin:round;stroke-miterlimit:4;stroke-dasharray:none;stroke-dashoffset:13.93629932;stroke-opacity:1" />
    </g>
  </g>
</svg>
